<?xml version="1.0" encoding="UTF-8" standalone="no"?>
<!-- Created with Inkscape (http://www.inkscape.org/) -->

<svg
   version="1.1"
   id="svg1"
   width="163.84"
   height="163.84"
   viewBox="0 0 163.84 163.84"
   sodipodi:docname="icon.svg"
   inkscape:version="1.4.2 (ebf0e940d0, 2025-05-08)"
   xmlns:inkscape="http://www.inkscape.org/namespaces/inkscape"
   xmlns:sodipodi="http://sodipodi.sourceforge.net/DTD/sodipodi-0.dtd"
   xmlns="http://www.w3.org/2000/svg"
   xmlns:svg="http://www.w3.org/2000/svg">
  <defs
     id="defs1" />
  <sodipodi:namedview
     id="namedview1"
     pagecolor="#ffffff"
     bordercolor="#000000"
     borderopacity="0.25"
     inkscape:showpageshadow="2"
     inkscape:pageopacity="0.0"
     inkscape:pagecheckerboard="0"
     inkscape:deskcolor="#d1d1d1"
     inkscape:zoom="5.3527833"
     inkscape:cx="44.182622"
     inkscape:cy="80.425449"
     inkscape:window-width="1920"
     inkscape:window-height="1128"
     inkscape:window-x="0"
     inkscape:window-y="0"
     inkscape:window-maximized="1"
     inkscape:current-layer="g1" />
  <g
     inkscape:groupmode="layer"
     inkscape:label="Image"
     id="g1">
    <path
       id="path3"
       style="display:inline;fill:#009ee2"
       d="M 81.919922 0.16015625 C 39.865658 0.16015625 36.441713 0.20064855 33.861328 0.7265625 C 32.333257 1.038002 29.971423 1.654314 28.613281 2.0976562 C 27.255138 2.5409987 25.067277 3.4030992 23.75 4.0117188 C 22.432723 4.620338 20.114165 5.9411996 18.597656 6.9472656 C 17.081147 7.9533315 14.449103 10.122857 12.75 11.767578 C 11.050897 13.412299 8.7710267 16.009251 7.6816406 17.539062 C 6.5922544 19.068874 5.0716899 21.61522 4.3046875 23.199219 C 3.5376851 24.783219 2.5466311 27.206102 2.1015625 28.582031 C 1.656494 29.95796 1.038002 32.333257 0.7265625 33.861328 C 0.20064857 36.441713 0.16015625 39.865658 0.16015625 81.919922 C 0.16015625 123.97418 0.20064855 127.39813 0.7265625 129.97852 C 1.038002 131.50659 1.6543139 133.86842 2.0976562 135.22656 C 2.5409987 136.5847 3.4030991 138.77256 4.0117188 140.08984 C 4.6203382 141.40712 5.9418472 143.72568 6.9492188 145.24219 C 7.95659 146.7587 10.008539 149.28213 11.509766 150.84961 C 13.010993 152.4171 15.36735 154.54021 16.746094 155.56836 C 18.124837 156.59651 20.170455 157.95148 21.291016 158.57812 C 22.411578 159.20478 24.52368 160.19718 25.984375 160.7832 C 27.445071 161.36922 29.865075 162.15326 31.361328 162.52539 C 32.857581 162.89751 35.160722 163.32579 36.480469 163.47852 C 37.800216 163.63126 58.00211 163.77603 81.373047 163.79883 C 109.81988 163.82663 124.88428 163.72633 126.94922 163.49609 C 128.6457 163.30692 131.36793 162.80635 132.99805 162.38281 C 134.62816 161.95927 137.26972 161.04697 138.86914 160.35742 C 140.46857 159.66787 143.03065 158.33432 144.5625 157.39258 C 146.57062 156.15804 148.51011 154.51723 151.51367 151.51367 C 154.51723 148.51011 156.15804 146.57062 157.39258 144.5625 C 158.33432 143.03065 159.66787 140.46857 160.35742 138.86914 C 161.04697 137.26972 161.96378 134.60512 162.39453 132.94727 C 162.82527 131.28943 163.3361 128.38202 163.5293 126.48633 C 163.77217 124.10397 163.84474 109.60059 163.76562 79.519531 C 163.65302 36.688949 163.64178 35.953518 162.98242 33.119141 C 162.61393 31.535141 161.99512 29.304156 161.60742 28.160156 C 161.21971 27.016156 160.41202 25.016288 159.8125 23.716797 C 159.21298 22.417306 157.89865 20.114165 156.89258 18.597656 C 155.88652 17.081147 153.71894 14.449103 152.07422 12.75 C 150.4295 11.050897 147.83059 8.7710267 146.30078 7.6816406 C 144.77097 6.5922544 142.22464 5.0716899 140.64062 4.3046875 C 139.05662 3.5376851 136.63374 2.5466311 135.25781 2.1015625 C 133.88188 1.656494 131.50659 1.038002 129.97852 0.7265625 C 127.39813 0.20064861 123.97418 0.16015625 81.919922 0.16015625 z M 81.910156 18.240234 C 82.132404 18.240517 83.195242 18.996094 84.273438 19.919922 C 85.351833 20.843922 90.257599 25.127453 95.173828 29.439453 C 100.09006 33.751453 105.05953 38.095502 106.2168 39.091797 L 108.32031 40.902344 L 108.48047 30.558594 C 108.56847 24.868727 108.75959 20.091742 108.90625 19.945312 C 109.05292 19.798885 112.91076 19.679686 117.47852 19.679688 C 124.51255 19.679687 125.82895 19.753618 126.08594 20.160156 C 126.2678 20.447847 126.39153 27.900507 126.39453 38.761719 L 126.40039 56.882812 L 127.91602 58.121094 C 128.7501 58.802295 130.8748 60.639501 132.63672 62.203125 C 134.39863 63.766749 136.27278 65.425254 136.80078 65.888672 C 137.32878 66.352091 139.88447 68.588028 142.48047 70.857422 C 145.07647 73.126815 147.19922 75.219449 147.19922 75.507812 C 147.19922 75.796177 147.02761 76.204816 146.81641 76.416016 C 146.55008 76.682347 144.90628 76.797369 141.45508 76.792969 L 136.48047 76.787109 L 128.80078 70.201172 C 124.57678 66.579031 116.95696 60.066855 111.86914 55.728516 C 106.78132 51.390178 101.01095 46.472781 99.044922 44.800781 C 97.078894 43.128781 93.104997 39.74936 90.214844 37.292969 C 87.324691 34.836579 84.768438 32.638475 84.533203 32.408203 C 84.297969 32.17793 83.608188 31.612789 83.001953 31.150391 L 81.900391 30.308594 L 80.550781 31.390625 C 79.80825 31.986119 76.176469 35.063282 72.480469 38.226562 C 68.784469 41.389846 63.887609 45.574309 61.599609 47.525391 C 59.311609 49.476473 52.472391 55.305601 46.400391 60.480469 C 40.328391 65.655337 33.559375 71.442652 31.359375 73.339844 L 27.359375 76.789062 L 22.384766 76.794922 C 18.934383 76.798922 17.289703 76.682284 17.023438 76.416016 C 16.812237 76.204816 16.640625 75.792191 16.640625 75.5 C 16.640625 75.207809 17.540625 74.181777 18.640625 73.21875 C 19.740625 72.255722 22.440625 69.895532 24.640625 67.974609 C 26.840625 66.053686 29.143766 64.036337 29.759766 63.490234 C 30.375766 62.944131 32.33561 61.214993 34.115234 59.648438 C 35.894858 58.081882 38.763659 55.576078 40.490234 54.080078 C 42.21681 52.584078 43.784559 51.215063 43.974609 51.039062 C 44.164658 50.863065 45.400952 49.784099 46.720703 48.640625 C 48.040454 47.497151 51.074391 44.833229 53.462891 42.720703 C 55.851392 40.608177 58.229269 38.520078 58.746094 38.080078 C 59.262918 37.640078 61.915904 35.336227 64.642578 32.960938 C 67.369253 30.585649 70.104703 28.192599 70.720703 27.642578 C 71.336703 27.092557 73.423375 25.236635 75.359375 23.519531 C 77.295375 21.802428 79.471232 19.911944 80.193359 19.318359 C 80.915317 18.724913 81.687977 18.240461 81.910156 18.240234 z M 81.914062 35.492188 L 90.123047 42.464844 C 94.637148 46.300757 102.30475 52.806766 107.16406 56.921875 C 112.02338 61.036983 116.87337 65.142077 117.94141 66.042969 C 119.00946 66.943861 122.10632 69.570094 124.82227 71.880859 C 127.53823 74.191624 130.15662 76.453419 130.64062 76.90625 L 131.51953 77.728516 L 131.51953 111.04492 C 131.51953 133.39874 131.41171 144.56518 131.18945 144.98047 C 130.86415 145.5887 129.98045 145.6007 82.148438 145.5957 C 52.013638 145.5927 33.2579 145.47481 32.960938 145.28711 C 32.540138 145.02114 32.470404 140.84693 32.396484 111.43945 C 32.329514 84.793647 32.393684 77.788422 32.714844 77.382812 C 32.937218 77.101973 35.999531 74.440353 39.519531 71.466797 C 43.039531 68.49324 47.216781 64.964313 48.800781 63.625 C 50.384781 62.285687 54.415766 58.852401 57.759766 55.996094 C 61.103766 53.139787 65.057731 49.776351 66.544922 48.521484 C 68.032113 47.266618 70.352748 45.304156 71.703125 44.160156 C 73.053502 43.016156 75.904098 40.597069 78.037109 38.785156 L 81.914062 35.492188 z M 74.958984 78.720703 C 74.623495 78.720703 73.675344 79.060502 72.853516 79.476562 C 71.479172 80.172348 71.359375 80.187499 71.359375 79.65625 C 71.359375 79.338574 71.251365 79.011408 71.119141 78.929688 C 70.986918 78.847966 70.122996 78.930627 69.199219 79.113281 C 68.289877 79.29308 67.544594 79.545789 67.521484 79.679688 L 67.521484 79.681641 L 67.519531 79.683594 L 67.519531 79.685547 C 67.519531 79.817698 67.808156 79.999747 68.160156 80.091797 C 68.747311 80.245344 68.800781 80.528736 68.800781 83.519531 C 68.800781 86.510326 68.747321 86.793719 68.160156 86.947266 C 67.808156 87.039316 67.519531 87.241011 67.519531 87.396484 C 67.519531 87.397384 67.519439 87.401359 67.519531 87.402344 L 67.519531 87.404297 L 67.519531 87.40625 L 67.521484 87.408203 C 67.586104 87.557043 68.641172 87.679687 69.919922 87.679688 C 71.208984 87.679686 72.269369 87.556421 72.318359 87.404297 C 72.318859 87.402397 72.319813 87.398984 72.320312 87.396484 L 72.320312 87.394531 C 72.320313 87.237361 72.098768 87.023778 71.828125 86.919922 C 71.424834 86.765149 71.352264 86.196403 71.427734 83.771484 C 71.518604 80.851804 71.530895 80.810503 72.416016 80.5 C 73.023693 80.28682 73.48942 80.29365 73.857422 80.525391 C 74.286834 80.795416 74.419027 81.447458 74.492188 83.638672 C 74.567587 85.896799 74.49311 86.44561 74.091797 86.599609 C 73.820903 86.70356 73.599609 86.989206 73.599609 87.234375 C 73.599609 87.57577 74.161925 87.679688 76 87.679688 C 77.258125 87.679686 78.297828 87.580128 78.392578 87.455078 C 78.393178 87.453978 78.395984 87.450219 78.396484 87.449219 C 78.397323 87.448019 78.399997 87.444059 78.400391 87.443359 L 78.400391 87.441406 L 78.400391 87.439453 L 78.400391 87.4375 C 78.400391 87.303836 78.111766 87.01475 77.759766 86.794922 C 77.201731 86.446424 77.119141 86.048921 77.119141 83.689453 C 77.119141 81.289164 77.193661 80.94219 77.775391 80.630859 C 78.136095 80.437819 78.819626 80.326009 79.294922 80.380859 C 80.156813 80.480319 80.160113 80.487741 80.251953 83.445312 C 80.327443 85.876452 80.254954 86.444801 79.851562 86.599609 C 79.580919 86.703465 79.359375 86.989206 79.359375 87.234375 C 79.359375 87.578247 79.945086 87.679688 81.919922 87.679688 C 83.465189 87.679687 84.480469 87.548829 84.480469 87.349609 C 84.480469 87.168085 84.227922 86.926139 83.919922 86.8125 C 83.611922 86.698862 83.254305 86.45251 83.125 86.263672 C 82.995695 86.074835 82.887466 84.653469 82.884766 83.105469 C 82.880266 80.547263 82.807666 80.219777 82.09375 79.505859 C 81.66175 79.073859 81.050375 78.720956 80.734375 78.722656 C 80.418375 78.724356 79.430483 79.065379 78.539062 79.480469 L 76.917969 80.236328 L 76.244141 79.478516 C 75.872879 79.061707 75.294473 78.720703 74.958984 78.720703 z M 87.519531 79.039062 C 86.261406 79.039064 85.221703 79.117744 85.126953 79.214844 L 85.125 79.216797 L 85.123047 79.21875 C 85.122647 79.21955 85.121394 79.223809 85.121094 79.224609 L 85.121094 79.226562 L 85.119141 79.226562 L 85.119141 79.228516 C 85.119141 79.332304 85.39697 79.657007 85.734375 79.949219 C 86.07178 80.24143 86.808967 81.560859 87.373047 82.880859 C 87.937127 84.200859 88.669485 85.847959 89 86.541016 C 89.330515 87.234074 89.599609 87.982418 89.599609 88.205078 C 89.599609 88.427739 89.432767 88.9775 89.228516 89.425781 C 88.990187 89.948856 88.598418 90.240234 88.134766 90.240234 C 87.737411 90.240234 87.184645 90.326764 86.90625 90.433594 C 86.627855 90.540424 86.400391 90.94996 86.400391 91.341797 C 86.400391 91.733634 86.495951 92.150244 86.613281 92.267578 C 86.730615 92.384909 87.011896 92.480469 87.238281 92.480469 C 87.464667 92.480469 88.009419 92.31562 88.449219 92.115234 C 88.889018 91.914847 89.46032 91.303472 89.71875 90.755859 C 89.977179 90.208245 90.864215 88.176234 91.689453 86.240234 C 92.514692 84.304234 93.465788 82.178668 93.802734 81.517578 C 94.13968 80.856488 94.699008 80.139122 95.046875 79.921875 C 95.394742 79.704628 95.679687 79.416867 95.679688 79.283203 C 95.679687 79.282203 95.679782 79.280297 95.679688 79.279297 C 95.679488 79.278197 95.678034 79.274436 95.677734 79.273438 C 95.630364 79.1455 94.857672 79.039062 93.919922 79.039062 C 92.951922 79.039064 92.160156 79.169002 92.160156 79.326172 C 92.160156 79.483342 92.39116 79.700124 92.673828 79.808594 C 93.026543 79.943946 93.129575 80.237608 93.001953 80.746094 C 92.899678 81.153589 92.426348 82.340626 91.949219 83.382812 L 91.080078 85.277344 L 90.042969 83.039062 C 89.471654 81.807744 88.994372 80.548234 88.982422 80.240234 C 88.970472 79.932234 89.175453 79.679687 89.439453 79.679688 C 89.703453 79.679688 89.919922 79.535375 89.919922 79.359375 C 89.919922 79.174486 88.906198 79.039062 87.519531 79.039062 z M 46.173828 103.51953 L 45.371094 105.91992 C 44.929967 107.23992 44.461658 108.57286 44.330078 108.88086 C 44.138986 109.32816 44.251378 109.43945 44.886719 109.43945 C 45.462795 109.43945 45.787895 109.1841 46.066406 108.51172 C 46.27791 108.0011 46.76614 107.28871 47.150391 106.92773 C 47.534641 106.56674 48.381258 106.04779 49.033203 105.77539 C 49.685148 105.50299 50.987328 105.2793 51.925781 105.2793 C 52.864234 105.2793 53.804425 105.45286 54.015625 105.66406 C 54.226825 105.87526 54.400391 106.70967 54.400391 107.51953 C 54.400391 108.32939 53.609407 112.93396 52.642578 117.75 C 51.675749 122.56604 50.668136 126.83561 50.404297 127.23828 C 50.104502 127.69583 49.474114 128.04337 48.722656 128.16602 C 48.061324 128.27397 47.304948 128.39148 47.042969 128.42578 C 46.78099 128.46008 46.519867 128.73699 46.460938 129.04297 C 46.361978 129.55681 46.85635 129.59961 52.9375 129.59961 C 59.30763 129.59961 59.519531 129.58021 59.519531 128.96094 C 59.519531 128.44538 59.307637 128.32031 58.423828 128.32031 C 57.820399 128.32031 57.098837 128.09298 56.822266 127.81641 C 56.545694 127.53984 56.320312 127.03322 56.320312 126.68945 C 56.320312 126.34569 57.044688 122.35969 57.929688 117.83203 C 58.814687 113.30437 59.747041 108.86958 60.001953 107.97656 C 60.256865 107.08354 60.753966 106.09135 61.107422 105.77148 C 61.629771 105.2988 62.08448 105.22488 63.539062 105.375 C 64.523327 105.47659 65.680873 105.78954 66.109375 106.07031 C 66.587074 106.38331 67.03501 107.13292 67.269531 108.00977 C 67.545266 109.04071 67.815558 109.43945 68.236328 109.43945 C 68.557349 109.43945 68.875399 109.25906 68.943359 109.03906 C 69.011309 108.81906 69.150999 107.48808 69.253906 106.08008 L 69.441406 103.51953 L 57.808594 103.51953 L 46.173828 103.51953 z M 90.111328 103.67188 L 80.339844 103.75586 C 71.327101 103.83386 70.560317 103.88386 70.460938 104.40039 C 70.380307 104.81947 70.565269 104.96094 71.197266 104.96094 C 71.661741 104.96094 72.319726 105.10882 72.660156 105.29102 C 73.102092 105.52753 73.280297 105.96179 73.279297 106.81055 C 73.278495 107.46435 72.496764 112.05298 71.542969 117.00781 C 70.589173 121.96263 69.580574 126.45686 69.302734 126.99414 C 68.919086 127.73603 68.510349 128.01857 67.599609 128.16992 C 66.940047 128.27952 66.22 128.42534 66 128.49414 C 65.78 128.56294 65.599609 128.84327 65.599609 129.11523 C 65.599616 129.55264 66.786097 129.59814 75.890625 129.52344 L 86.181641 129.43945 L 87.078125 126.77539 C 87.570466 125.30999 88.060502 123.83469 88.167969 123.49609 C 88.32372 123.00536 88.207619 122.88086 87.595703 122.88086 C 87.024893 122.88086 86.559132 123.29456 85.779297 124.49805 C 85.202465 125.38825 84.145077 126.50472 83.429688 126.97852 C 82.295777 127.7295 81.744812 127.85417 79.134766 127.95117 C 77.100811 128.02677 75.989487 127.93707 75.669922 127.67188 C 75.411201 127.45714 75.199219 126.87343 75.199219 126.375 C 75.199219 125.87656 75.576383 123.51878 76.037109 121.13477 L 76.875 116.80078 L 79.326172 116.80078 C 81.026713 116.80078 81.994862 116.95321 82.488281 117.29883 C 82.89324 117.58248 83.199219 118.13296 83.199219 118.57812 C 83.199219 119.18229 83.368592 119.35936 83.941406 119.35938 C 84.62589 119.35935 84.726633 119.12104 85.265625 116.24023 C 85.586684 114.52423 85.91795 112.9407 86 112.7207 C 86.09426 112.46797 85.856076 112.32031 85.353516 112.32031 C 84.7666 112.32031 84.450076 112.57841 84.148438 113.30664 C 83.923597 113.84944 83.392722 114.42669 82.96875 114.58789 C 82.544778 114.74908 81.126902 114.88086 79.818359 114.88086 C 78.23061 114.88086 77.439453 114.7568 77.439453 114.50977 C 77.439453 114.30617 77.750423 112.47816 78.128906 110.44727 C 78.658389 107.60614 78.985432 106.58488 79.552734 106.01758 C 80.193037 105.3773 80.610016 105.2793 82.720703 105.2793 C 84.232883 105.2793 85.494722 105.45741 86.060547 105.75 C 86.569234 106.01306 87.127771 106.66915 87.326172 107.23828 C 87.521253 107.79789 87.679688 108.52616 87.679688 108.85742 C 87.679688 109.18868 87.90581 109.5465 88.181641 109.65234 C 88.457471 109.75819 88.852377 109.67534 89.060547 109.46875 C 89.268716 109.26214 89.59082 107.87407 89.775391 106.38281 L 90.111328 103.67188 z M 115.76367 103.75 C 112.10168 103.8272 111.51458 103.91225 111.42578 104.375 C 111.35768 104.72996 111.5707 104.94622 112.06055 105.01562 C 112.52163 105.08102 112.83493 105.37029 112.89453 105.78711 C 112.95213 106.19034 112.40622 107.23452 111.51367 108.42188 C 110.70071 109.50334 109.40161 111.07482 108.62695 111.91406 C 107.46631 113.17145 107.16242 113.35452 106.90039 112.95898 C 106.72549 112.69498 106.04837 111.05916 105.39648 109.32227 C 104.51151 106.96432 104.29319 106.03235 104.53711 105.64258 C 104.71678 105.35547 105.24665 105.07523 105.71289 105.01953 C 106.30644 104.94863 106.56055 104.7293 106.56055 104.29102 C 106.56055 103.68945 106.33326 103.66815 100.72461 103.75195 C 95.83614 103.82505 94.874251 103.91823 94.800781 104.32031 C 94.746601 104.6168 95.187227 104.99781 95.955078 105.31836 C 97.112658 105.8016 97.377261 106.19075 99.798828 110.97852 C 101.22909 113.80635 102.40039 116.40748 102.40039 116.75781 C 102.40039 117.13934 100.59763 119.28896 97.90625 122.11719 C 95.434937 124.71416 93.167873 127.00919 92.867188 127.21875 C 92.566501 127.4283 91.601306 127.80337 90.722656 128.05078 C 89.701282 128.33836 89.087251 128.69916 89.019531 129.05078 C 88.923301 129.55051 89.339377 129.59961 93.576172 129.59961 C 97.970297 129.59961 98.240234 129.56451 98.240234 128.98242 C 98.240234 128.58543 97.982237 128.32742 97.519531 128.26172 C 97.086628 128.20022 96.763918 127.90433 96.710938 127.51953 C 96.654557 127.11007 97.645257 125.6114 99.458984 123.35938 C 101.01818 121.42338 102.5237 119.65128 102.80469 119.41992 C 103.23793 119.06319 103.36804 119.097 103.66211 119.64648 C 103.85284 120.00286 104.59444 121.89358 105.31055 123.84766 C 106.02667 125.80175 106.5345 127.60647 106.4375 127.85938 C 106.3405 128.11225 105.89474 128.32031 105.44922 128.32031 C 104.85251 128.32031 104.64062 128.48753 104.64062 128.95898 C 104.64065 129.57531 104.85372 129.59961 110.40039 129.59961 C 115.70475 129.59961 116.16016 129.55461 116.16016 129.03125 C 116.16016 128.67511 115.65309 128.22792 114.80078 127.83203 C 113.48519 127.22094 113.35372 127.01674 110.8125 121.59961 C 109.36764 118.51961 108.18083 115.70769 108.17383 115.34961 C 108.16583 114.94985 109.64764 113.09641 112.01367 110.54883 C 114.13297 108.26691 116.32544 106.14747 116.88672 105.83984 C 117.44799 105.5322 118.37771 105.19389 118.95312 105.08594 C 119.70283 104.9453 120 104.71513 120 104.27539 C 120 103.6969 119.75685 103.6658 115.76367 103.75 z " />
  </g>
</svg>
